<svg xmlns="http://www.w3.org/2000/svg" xmlns:xlink="http://www.w3.org/1999/xlink" width="250" height="250" viewBox="0 0 250 250">
  <defs>
    <style>
      .cls-1 {
        clip-path: url(#clip-Canvas);
      }

      .cls-2 {
        fill: url(#pattern);
      }

      .cls-3 {
        fill: rgba(0,0,0,0);
      }
    </style>
    <pattern id="pattern" preserveAspectRatio="none" width="100%" height="100%" viewBox="0 0 0 0">
      <image/>
    </pattern>
    <clipPath id="clip-Canvas">
      <rect width="250" height="250"/>
    </clipPath>
  </defs>
  <g id="Canvas" class="cls-1">
    <rect class="cls-3" width="250" height="250"/>
    <rect id="Background" class="cls-2"/>
    <path id="Rectangle_1" data-name="Rectangle 1" d="M91,13h30V163H71V33A20,20,0,0,1,91,13Z"/>
    <path id="Rectangle_1-2" data-name="Rectangle 1" d="M26,88H66v75H26a10,10,0,0,1-10-10V98A10,10,0,0,1,26,88Z"/>
    <path id="Rectangle_1-3" data-name="Rectangle 1" d="M159,238H129V88h50V218A20,20,0,0,1,159,238Z"/>
    <path id="Rectangle_1-4" data-name="Rectangle 1" d="M224,163H184V88h40a10,10,0,0,1,10,10v55A10,10,0,0,1,224,163Z"/>
  </g>
</svg>
